<svg xmlns="http://www.w3.org/2000/svg" viewBox="0 0 600 600" width="600" height="600"><rect width="600" height="600" fill="#F8E7CE"/><circle cx="300" cy="300" r="190" fill="#B33B0E" opacity="0.14"/><circle cx="300" cy="300" r="160" fill="#fff" opacity="0.55"/><g transform="rotate(28.0 300 300)"><ellipse cx="300" cy="212" rx="34" ry="58" fill="#6B3210" opacity="0.9"/></g><g transform="rotate(79.42857142857143 300 300)"><ellipse cx="300" cy="212" rx="34" ry="58" fill="#6B3210" opacity="0.9"/></g><g transform="rotate(130.85714285714286 300 300)"><ellipse cx="300" cy="212" rx="34" ry="58" fill="#6B3210" opacity="0.9"/></g><g transform="rotate(182.28571428571428 300 300)"><ellipse cx="300" cy="212" rx="34" ry="58" fill="#6B3210" opacity="0.9"/></g><g transform="rotate(233.71428571428572 300 300)"><ellipse cx="300" cy="212" rx="34" ry="58" fill="#6B3210" opacity="0.9"/></g><g transform="rotate(285.14285714285717 300 300)"><ellipse cx="300" cy="212" rx="34" ry="58" fill="#6B3210" opacity="0.9"/></g><g transform="rotate(336.57142857142856 300 300)"><ellipse cx="300" cy="212" rx="34" ry="58" fill="#6B3210" opacity="0.9"/></g><circle cx="300" cy="300" r="52" fill="#B33B0E"/></svg>